<?xml version="1.0" encoding="UTF-8"?>
<svg width="119px" height="60px" viewBox="0 0 119 60" version="1.1" xmlns="http://www.w3.org/2000/svg" xmlns:xlink="http://www.w3.org/1999/xlink">
    <!-- Generator: Sketch 42 (36781) - http://www.bohemiancoding.com/sketch -->
    <title>Group 2</title>
    <desc>Created with Sketch.</desc>
    <defs></defs>
    <g id="Symbols" stroke="none" stroke-width="1" fill="none" fill-rule="evenodd">
        <g id="Header---Mobile-2" transform="translate(-59.000000, 0.000000)">
            <g id="Header---Mobile">
                <g id="Logo-Lockup" transform="translate(-60.000000, -49.000000)">
                    <g id="Logo" transform="translate(0.306683, 0.110616)">
                        <g id="Group-2" transform="translate(119.000000, 49.000000)">
                            <rect id="Rectangle-3" fill="#211D14" x="0" y="0" width="118" height="60"></rect>
                            <path d="M15.4640306,31.1463046 C15.4640306,31.1463046 18.1386875,30.3707289 20.8430346,30.2902988 C21.9653217,30.2558288 23.0910019,30.3411831 24.0351482,30.6514134 C24.4923762,30.802425 24.9071898,31.0051416 25.2575334,31.2735154 C25.6350223,31.5632278 25.9353168,31.9268045 26.1338165,32.3806599 C26.2975364,32.7590095 26.3916965,33.1980921 26.3976346,33.7077561 C26.4001794,33.7331982 26.4027243,33.7537161 26.4027243,33.7783376 C26.4027243,34.3208302 26.3238334,34.7828927 26.1830173,35.1801188 C26.0023316,35.6873206 25.7173064,36.0853674 25.3525418,36.394777 C25.0437645,36.6541229 24.6798482,36.8519152 24.2743658,36.9938989 C23.7043153,37.1949741 23.0528289,37.2885356 22.3640178,37.3082328 C21.0847971,37.3418821 19.6783331,37.1129026 18.4177748,36.8125209 C16.3165616,36.3159883 14.6284654,35.6224842 14.6284654,35.6224842 L14.6157411,35.9466666 L14.6284654,41.0892668 C14.6284654,41.0892668 15.9636732,41.5283493 17.9104977,41.9058782 C19.1982012,42.1545548 20.7505711,42.3753272 22.3640178,42.4221079 C22.61087,42.4303151 22.8594189,42.4352394 23.108816,42.4327772 L23.108816,42.4294943 C24.5305493,42.4294943 25.8403083,42.1841006 26.9956787,41.7409145 C27.951701,41.3756963 28.8016871,40.8791637 29.527823,40.2726553 C30.4991145,39.4617889 31.2456093,38.456413 31.7172583,37.3230056 C32.091354,36.4251434 32.2932469,35.4452097 32.2932469,34.4176745 C32.2932469,34.1468386 32.2796743,33.8833891 32.2610119,33.6248639 C32.1736381,32.4011778 31.8818265,31.3096268 31.4118741,30.3666253 C30.9122315,29.3686359 30.2174824,28.5372516 29.3581651,27.8872453 C28.5013926,27.2405219 27.4817486,26.7743558 26.3348611,26.505982 C25.4127704,26.2925961 24.4083956,26.2080624 23.3387025,26.2573053 C23.2547218,26.2605882 23.1707411,26.263871 23.0859122,26.269616 C20.6615007,26.4321176 20.3688408,26.4304762 20.3450887,26.4247312 L20.3476335,26.4206276 L20.3476335,22.1947661 L31.2057397,22.1947661 L31.2057397,17.4395434 L31.1930154,17.4395434 L31.1768979,17.455137 L15.4818447,17.455137 L15.4750584,17.455137 L15.4750584,31.130711 L15.4640306,31.1463046 L15.4640306,31.1463046 Z" id="Fill-6" fill="#FBF8FC"></path>
                            <polygon id="Fill-8" fill="#E75300" points="91.0177873 29.2612043 87.633112 29.2612043 87.633112 25.9873722 86.5014938 25.9873722 86.5014938 29.2612043 83.1168185 29.2612043 83.1168185 30.3568588 86.5014938 30.3568588 86.5014938 33.6323324 87.633112 33.6323324 87.633112 30.3568588 91.0177873 30.3568588"></polygon>
                            <path d="M74.2690737,42.1930464 L99.8662107,42.1930464 L99.8662107,17.4271506 L74.2690737,17.4271506 L74.2690737,42.1930464 Z M98.0483262,37.0545498 C98.0483262,38.9216764 96.4840803,40.4342541 94.5550699,40.4342541 L79.5853043,40.4342541 C77.6579904,40.4342541 76.0945928,38.9216764 76.0945928,37.0545498 L76.0861099,37.0545498 L76.0861099,22.5722129 L76.0962894,22.5722129 C76.0962894,20.7075484 77.6579904,19.1933293 79.5853043,19.1933293 L79.5853043,19.1843014 L94.5550699,19.1843014 L94.5550699,19.1933293 C96.4857769,19.1933293 98.0483262,20.7075484 98.0483262,22.5722129 L98.0508711,22.5722129 L98.0508711,37.0545498 L98.0483262,37.0545498 Z" id="Fill-10" fill="#E75300"></path>
                            <path d="M78.9244867,37.6881417 L95.2099494,37.6881417 L95.2099494,21.9295931 L78.9244867,21.9295931 L78.9244867,37.6881417 Z M93.9264873,34.3347003 C93.9264873,35.501757 92.9501061,36.4447585 91.7455349,36.4447585 L91.7455349,36.4496828 L82.3990807,36.4496828 L82.3990807,36.4447585 C81.1928129,36.4447585 80.2181283,35.501757 80.2181283,34.3347003 L80.2037073,34.3347003 L80.2037073,25.2928831 L80.2181283,25.2928831 C80.2181283,24.1282885 81.1928129,23.1828249 82.3990807,23.1828249 L82.3990807,23.1688727 L91.7455349,23.1688727 L91.7455349,23.1828249 C92.9501061,23.1828249 93.9264873,24.1282885 93.9264873,25.2928831 L93.9307288,25.2928831 L93.9307288,34.3347003 L93.9264873,34.3347003 Z" id="Fill-12" fill="#E75300"></path>
                            <path d="M100.819179,18.7549033 C100.819179,17.9990248 101.4537,17.38513 102.242609,17.38513 C103.028125,17.38513 103.658404,17.9990248 103.658404,18.7549033 C103.658404,19.518989 103.028125,20.1320631 102.242609,20.1320631 C101.4537,20.1320631 100.819179,19.518989 100.819179,18.7549033 L100.819179,18.7549033 Z M103.409007,18.7549033 C103.409007,18.1344428 102.888157,17.6264202 102.242609,17.6264202 C101.593668,17.6264202 101.068576,18.1344428 101.068576,18.7549033 C101.068576,19.383571 101.593668,19.8907729 102.242609,19.8907729 C102.888157,19.8907729 103.409007,19.383571 103.409007,18.7549033 L103.409007,18.7549033 Z M101.940618,18.8468234 L101.940618,19.5444311 L101.680193,19.5444311 L101.680193,17.9300847 L102.219705,17.9300847 C102.525938,17.9300847 102.84235,18.0096941 102.84235,18.3749123 C102.84235,18.5612146 102.725286,18.7073018 102.503034,18.7516205 L102.503034,18.7590069 C102.733769,18.8025048 102.760066,18.9009906 102.786363,19.0766236 C102.809266,19.2300973 102.827929,19.3983439 102.884764,19.5444311 L102.552235,19.5444311 C102.533572,19.4525111 102.507275,19.3507424 102.495399,19.2555395 C102.476737,19.1168386 102.476737,18.9888071 102.401239,18.9116599 C102.337617,18.8468234 102.250244,18.8533891 102.160325,18.8468234 L101.940618,18.8468234 Z M102.216312,18.5940432 C102.461468,18.5874775 102.518303,18.4881709 102.518303,18.364243 C102.518303,18.2435979 102.461468,18.1812235 102.253637,18.1812235 L101.940618,18.1812235 L101.940618,18.5940432 L102.216312,18.5940432 Z" id="Fill-13" fill="#E75300"></path>
                            <polygon id="Fill-3" fill="#FBF8FC" points="38.2277957 37.4091807 33.3085647 37.4173879 33.2983852 42.1832799 38.2328855 42.1931284"></polygon>
                            <polygon id="Fill-4" fill="#FBF8FC" points="56.6992158 22.2448297 60.7167151 22.2448297 60.7167151 27.1001796 60.7201082 37.3976907 56.430308 37.4009736 56.436246 42.1898456 69.9113254 42.1808177 69.945257 37.4009736 65.6639397 37.4009736 65.6639397 17.4707306 56.714485 17.455137"></polygon>
                            <polygon id="Fill-5" fill="#FBF8FC" points="40.7778389 22.2448297 44.7953382 22.2448297 44.7953382 27.1001796 44.7987314 37.3976907 40.5089312 37.4009736 40.5131726 42.1898456 53.9891003 42.1808177 54.0238802 37.4009736 49.7425629 37.4009736 49.7425629 17.4707306 40.7914116 17.455137"></polygon>
                        </g>
                    </g>
                </g>
            </g>
        </g>
    </g>
</svg>